<?xml version="1.0"?>
<svg xmlns="http://www.w3.org/2000/svg" xmlns:xlink="http://www.w3.org/1999/xlink" xmlns:svgjs="http://svgjs.com/svgjs" version="1.1" width="512" height="512" x="0" y="0" viewBox="0 0 95 95" style="enable-background:new 0 0 512 512" xml:space="preserve" class=""><g transform="matrix(0.8099999999999999,0,0,0.8099999999999999,9.024999999999991,9.024999999999977)">
<g xmlns="http://www.w3.org/2000/svg">
	<g>
		<path d="M60,23V2c0-1.105-0.896-2-2-2H37c-1.104,0-2,0.895-2,2v21c0,1.105,0.896,2,2,2h21C59.104,25,60,24.105,60,23z" fill="#000000" data-original="#000000" style="" class=""/>
		<path d="M60,58V37c0-1.105-0.896-2-2-2H37c-1.104,0-2,0.895-2,2v21c0,1.105,0.896,2,2,2h21C59.104,60,60,59.105,60,58z" fill="#000000" data-original="#000000" style="" class=""/>
		<path d="M60,93V72c0-1.105-0.896-2-2-2H37c-1.104,0-2,0.895-2,2v21c0,1.105,0.896,2,2,2h21C59.104,95,60,94.105,60,93z" fill="#000000" data-original="#000000" style="" class=""/>
	</g>
</g>
<g xmlns="http://www.w3.org/2000/svg">
</g>
<g xmlns="http://www.w3.org/2000/svg">
</g>
<g xmlns="http://www.w3.org/2000/svg">
</g>
<g xmlns="http://www.w3.org/2000/svg">
</g>
<g xmlns="http://www.w3.org/2000/svg">
</g>
<g xmlns="http://www.w3.org/2000/svg">
</g>
<g xmlns="http://www.w3.org/2000/svg">
</g>
<g xmlns="http://www.w3.org/2000/svg">
</g>
<g xmlns="http://www.w3.org/2000/svg">
</g>
<g xmlns="http://www.w3.org/2000/svg">
</g>
<g xmlns="http://www.w3.org/2000/svg">
</g>
<g xmlns="http://www.w3.org/2000/svg">
</g>
<g xmlns="http://www.w3.org/2000/svg">
</g>
<g xmlns="http://www.w3.org/2000/svg">
</g>
<g xmlns="http://www.w3.org/2000/svg">
</g>
</g></svg>
